<svg xmlns="http://www.w3.org/2000/svg" viewBox="0 0 600 400">
  <rect width="600" height="400" fill="#FCFCFA"/>
  <!-- three candidate goals with posterior mass -->
  <g font-family="ui-monospace,Menlo,monospace" font-size="17" fill="#8A8A84">
    <rect x="470" y="60" width="46" height="46" fill="none" stroke="#1C1C1A" stroke-width="4"/>
    <circle cx="493" cy="83" r="66" fill="#3450C8" opacity="0.28"/>
    <text x="452" y="140" fill="#3450C8">p=0.71</text>
    <rect x="500" y="200" width="42" height="42" fill="none" stroke="#8A8A84" stroke-width="3"/>
    <circle cx="521" cy="221" r="34" fill="#3450C8" opacity="0.13"/>
    <text x="482" y="272" >p=0.21</text>
    <rect x="440" y="310" width="38" height="38" fill="none" stroke="#8A8A84" stroke-width="3"/>
    <circle cx="459" cy="329" r="20" fill="#3450C8" opacity="0.08"/>
    <text x="424" y="378">p=0.08</text>
  </g>
  <!-- pedestrian -->
  <circle cx="95" cy="220" r="17" fill="#1C1C1A"/>
  <!-- observed path -->
  <path d="M40 320 C60 290 75 255 95 220" stroke="#1C1C1A" stroke-width="4" fill="none" stroke-dasharray="1 10" stroke-linecap="round"/>
  <!-- optimal-control rollouts to goals -->
  <path d="M95 220 C200 150 360 100 470 84" stroke="#3450C8" stroke-width="5" fill="none" opacity="0.85"/>
  <path d="M95 220 C230 210 400 215 500 221" stroke="#3450C8" stroke-width="3.5" fill="none" opacity="0.35"/>
  <path d="M95 220 C220 275 350 315 440 329" stroke="#3450C8" stroke-width="2.5" fill="none" opacity="0.18"/>
  <text x="40" y="52" font-family="ui-monospace,Menlo,monospace" font-size="20" fill="#8A8A84">argmax p(goal | path)</text>
</svg>
